<svg width="100" height="100" viewBox="0 0 100 100" fill="none" xmlns="http://www.w3.org/2000/svg">
<circle cx="50" cy="50" r="50" fill="#131313" fill-opacity="0.5"/>
<path d="M51.466 50.0001L57.6962 43.7697C58.1017 43.3645 58.1017 42.7092 57.6962 42.3039C57.291 41.8987 56.6357 41.8987 56.2305 42.3039L50.0001 48.5343L43.7699 42.3039C43.3644 41.8987 42.7093 41.8987 42.3041 42.3039C41.8986 42.7092 41.8986 43.3645 42.3041 43.7697L48.5343 50.0001L42.3041 56.2305C41.8986 56.6358 41.8986 57.291 42.3041 57.6963C42.5061 57.8984 42.7716 58 43.037 58C43.3023 58 43.5677 57.8984 43.7699 57.6963L50.0001 51.4659L56.2305 57.6963C56.4326 57.8984 56.698 58 56.9634 58C57.2287 58 57.4941 57.8984 57.6962 57.6963C58.1017 57.291 58.1017 56.6358 57.6962 56.2305L51.466 50.0001Z" fill="white"/>
</svg>
