<?xml version="1.0" standalone="no"?>
<!DOCTYPE svg PUBLIC "-//W3C//DTD SVG 20010904//EN"
 "http://www.w3.org/TR/2001/REC-SVG-20010904/DTD/svg10.dtd">
<svg version="1.0" xmlns="http://www.w3.org/2000/svg"
 width="224.000000pt" height="224.000000pt" viewBox="0 0 224.000000 224.000000"
 preserveAspectRatio="xMidYMid meet">
<metadata>
Created by potrace 1.14, written by Peter Selinger 2001-2017
</metadata>
<g transform="translate(0.000000,224.000000) scale(0.100000,-0.100000)"
fill="#000000" stroke="none">
<path d="M939 2231 c-226 -42 -426 -142 -587 -295 -552 -525 -433 -1422 239
-1790 268 -147 620 -172 911 -66 588 215 885 871 659 1456 -57 147 -149 282
-273 400 -135 128 -296 219 -478 270 -81 22 -119 26 -260 29 -91 2 -186 0
-211 -4z m379 -36 c289 -55 544 -223 706 -464 25 -38 46 -72 46 -75 0 -3 -12
-1 -26 4 -95 37 -250 -40 -315 -156 -22 -38 -36 -53 -46 -50 -8 3 -23 6 -34 6
-12 0 -26 14 -39 40 -28 55 -25 65 12 38 l32 -23 -23 40 c-13 22 -28 44 -33
50 -4 5 -8 15 -8 22 0 11 5 11 20 3 21 -11 27 -1 11 16 -6 5 -17 26 -26 48
-15 35 -15 38 -1 33 15 -6 15 -4 1 23 -8 16 -15 39 -16 52 -1 22 -1 22 -12 -4
-7 -14 -21 -36 -32 -49 -17 -20 -18 -22 -2 -16 26 10 21 -5 -20 -53 l-37 -43
28 7 28 7 -28 -36 c-15 -20 -37 -43 -48 -51 -24 -16 -9 -18 30 -4 26 10 26 10
13 -10 -17 -25 -14 -25 -64 -12 -22 6 -53 14 -68 17 -15 3 -31 13 -34 23 -3 9
-17 32 -30 49 l-24 33 23 31 c19 25 23 43 23 103 0 65 -3 77 -29 110 -39 51
-104 80 -167 74 -151 -15 -222 -195 -122 -309 12 -15 11 -19 -14 -39 -36 -28
-83 -97 -83 -122 0 -17 -5 -19 -47 -12 -52 7 -68 16 -85 47 -10 19 -8 19 23
13 l34 -6 -43 43 c-48 49 -51 58 -19 49 20 -5 19 -2 -10 32 -34 38 -41 56 -21
56 7 0 5 7 -5 18 -8 9 -21 31 -28 47 l-12 30 -7 -35 c-4 -19 -11 -44 -15 -54
-6 -14 -5 -17 4 -11 17 10 7 -27 -20 -73 -18 -32 -18 -32 1 -22 27 15 31 13
19 -13 -8 -17 -18 -22 -47 -22 -34 0 -40 4 -56 38 -24 50 -83 81 -140 73 -38
-5 -42 -3 -61 27 -11 18 -40 42 -65 53 l-44 22 79 79 c164 162 352 264 571
307 95 19 303 19 402 1z m-99 -260 c41 -21 79 -70 87 -111 8 -41 -8 -102 -34
-133 -16 -20 -20 -21 -74 -9 l-57 12 -4 55 -3 56 -2 -60 -2 -61 -41 -11 c-39
-10 -43 -9 -65 14 -66 71 -46 192 40 244 38 23 115 25 155 4z m-916 -173 c20
-9 48 -33 60 -51 23 -33 27 -35 76 -32 65 3 96 -15 121 -72 18 -39 21 -41 54
-39 38 4 45 -5 24 -27 -11 -11 -9 -11 9 -2 12 6 24 11 27 11 15 0 3 -39 -24
-80 -32 -48 -32 -57 -2 -41 26 14 32 14 32 0 0 -15 -51 -129 -58 -129 -11 0
-112 81 -112 90 0 6 10 10 22 10 22 0 22 0 -2 17 -14 9 -35 25 -48 37 -20 18
-21 21 -6 26 14 5 10 11 -20 29 -21 13 -35 29 -32 36 2 7 -6 23 -20 36 -17 16
-24 18 -24 8 0 -8 -3 -25 -7 -38 -4 -17 -3 -22 5 -17 16 10 15 -17 -3 -59 -14
-34 -13 -35 6 -24 19 10 20 8 13 -28 -4 -21 -11 -48 -15 -61 -13 -34 -11 -37
11 -17 20 18 20 17 20 -7 0 -36 -37 -154 -53 -165 -6 -6 -57 -25 -112 -43 -55
-18 -124 -44 -154 -56 -29 -13 -55 -24 -57 -24 -10 0 -2 177 11 253 16 91 54
220 83 277 16 31 22 35 51 32 49 -4 90 -29 108 -67 20 -42 38 -46 29 -7 -9 38
-58 80 -111 94 -40 11 -43 14 -33 32 22 45 74 115 83 115 6 0 27 -7 48 -17z
m827 -122 c0 -12 -32 -55 -72 -98 -40 -43 -97 -106 -127 -140 -29 -34 -58 -59
-63 -56 -16 10 -68 86 -68 100 0 9 8 10 32 3 43 -12 45 -12 22 6 -18 14 -16
15 27 9 l46 -6 6 39 c9 52 60 111 121 139 62 29 76 30 76 4z m141 -15 c16 -16
34 -43 41 -61 10 -29 16 -32 67 -38 83 -10 92 -18 57 -55 l-29 -31 33 10 c19
5 36 8 38 5 7 -6 -60 -103 -73 -109 -17 -6 -265 271 -265 295 0 20 4 21 50 17
38 -4 58 -12 81 -33z m787 9 c14 -4 32 -25 48 -55 l24 -49 -29 0 c-32 0 -91
-43 -91 -66 0 -9 -11 -14 -34 -14 -19 0 -41 -3 -49 -6 -10 -3 -19 8 -31 36
-20 49 -20 54 -2 47 11 -5 12 1 4 29 -5 19 -6 40 -1 47 4 6 -7 -1 -24 -18 -17
-17 -26 -33 -20 -36 5 -4 -9 -20 -33 -35 -32 -22 -38 -29 -26 -34 15 -5 14 -8
-6 -26 -13 -12 -34 -28 -48 -37 l-24 -17 23 0 c14 0 21 -5 19 -12 -5 -13 -98
-88 -109 -88 -8 0 -49 94 -49 114 0 11 12 14 56 13 56 -2 56 -2 76 36 30 60
98 128 153 153 50 24 123 31 173 18z m-778 -225 c155 -183 324 -383 347 -410
12 -15 10 -34 -17 -148 l-32 -131 -65 0 -64 0 26 34 26 34 -62 73 c-67 80
-177 224 -252 332 -27 37 -50 67 -52 67 -2 0 -50 -64 -107 -142 -57 -79 -138
-185 -180 -236 -43 -50 -78 -96 -78 -101 0 -4 9 -16 20 -26 31 -28 24 -35 -34
-35 -62 0 -54 -14 -101 163 -22 82 -24 100 -13 116 12 16 53 65 318 375 52 61
112 133 134 159 21 26 39 47 40 47 1 0 67 -77 146 -171z m877 31 c25 -77 43
-195 43 -289 l0 -68 -127 43 c-71 24 -136 44 -145 44 -21 0 -44 51 -60 128
-12 58 -7 72 18 51 15 -12 16 -11 10 8 -5 17 -1 29 19 49 26 26 52 29 98 9 14
-6 17 -2 17 23 0 38 42 74 79 70 22 -3 29 -13 48 -68z m-258 6 c9 -10 8 -16
-4 -26 -9 -7 -15 -8 -15 -2 0 6 -3 17 -6 26 -8 20 9 21 25 2z m-1155 -248
c-11 -13 -73 -80 -137 -149 -64 -70 -117 -129 -117 -133 0 -3 32 -6 70 -6 39
0 70 -4 70 -9 0 -5 -39 -45 -86 -89 -55 -51 -84 -85 -79 -92 5 -8 35 16 91 71
l83 82 16 -59 c9 -32 20 -70 24 -84 l8 -25 156 3 156 4 6 -29 c18 -78 58 -123
112 -123 53 0 33 56 -39 107 -35 26 -47 39 -36 41 40 8 118 -70 118 -118 0
-13 5 -20 12 -18 22 7 49 71 45 106 -2 21 1 32 10 32 22 0 15 -64 -12 -103
-13 -20 -21 -39 -17 -41 14 -9 89 31 111 60 12 16 25 41 28 56 l5 27 126 -2
126 -2 17 74 c10 40 20 76 24 79 3 3 39 -27 79 -67 41 -40 80 -71 87 -69 8 3
-21 37 -74 88 -48 46 -87 87 -87 91 0 5 32 9 71 9 l71 0 86 -82 c48 -46 3 5
-99 112 -102 107 -203 215 -225 239 l-39 44 70 -7 c153 -16 331 -58 543 -129
l92 -31 -6 -51 c-55 -437 -362 -799 -781 -920 -186 -54 -406 -56 -593 -4 -96
26 -264 106 -346 164 -215 154 -375 398 -429 657 -26 121 -26 122 58 156 105
44 292 99 431 127 147 29 164 32 195 34 l24 1 -19 -22z m258 -180 c-22 -40
-68 -121 -103 -179 l-64 -105 -21 25 -21 25 71 85 c39 48 93 116 120 154 28
37 52 67 54 67 2 0 -14 -33 -36 -72z m308 -30 c35 -46 86 -109 113 -140 48
-56 48 -57 32 -82 -10 -14 -21 -24 -25 -21 -15 9 -196 325 -187 325 2 0 32
-37 67 -82z m-254 -66 c-11 -35 14 -85 79 -153 66 -71 75 -94 56 -144 -7 -18
-9 -17 -25 12 -9 18 -40 50 -70 72 -29 22 -59 53 -66 70 -13 33 -10 86 9 134
12 30 26 38 17 9z m181 -122 c45 -20 83 -69 83 -107 0 -24 -41 -77 -72 -94
-18 -10 -19 -9 -4 20 34 65 14 128 -56 181 -47 35 -32 35 49 0z m-162 -152
c19 -13 39 -33 44 -45 9 -20 8 -23 -10 -23 -24 0 -79 51 -79 74 0 21 4 20 45
-6z"/>
<path d="M1140 2080 c0 -38 4 -70 9 -70 11 0 18 59 13 105 -7 61 -22 38 -22
-35z"/>
<path d="M970 2093 c0 -21 51 -106 70 -118 17 -10 4 29 -26 82 -28 49 -44 62
-44 36z"/>
<path d="M1297 2068 c-27 -34 -51 -88 -43 -95 6 -7 53 58 66 91 15 41 6 43
-23 4z"/>
<path d="M835 1971 c10 -18 80 -59 111 -67 38 -10 24 9 -29 40 -52 30 -92 43
-82 27z"/>
<path d="M1415 1958 c-39 -21 -85 -53 -85 -60 0 -13 71 16 102 43 33 28 23 39
-17 17z"/>
<path d="M791 1801 c-21 -13 69 -25 116 -16 32 6 35 9 18 15 -27 12 -117 12
-134 1z"/>
<path d="M1360 1791 c0 -12 61 -20 110 -14 28 4 37 9 28 14 -17 11 -138 11
-138 0z"/>
<path d="M883 1660 c-55 -32 -73 -57 -28 -40 43 17 81 38 94 54 22 26 -7 20
-66 -14z"/>
<path d="M1320 1686 c0 -10 66 -56 103 -71 43 -18 46 -14 15 15 -33 31 -118
71 -118 56z"/>
<path d="M1931 1002 c-9 -6 6 -11 45 -14 33 -2 78 -14 102 -26 48 -23 40 -2
-8 23 -35 18 -121 28 -139 17z"/>
<path d="M225 989 c-16 -5 -43 -20 -60 -34 -24 -21 -25 -23 -5 -12 36 21 97
39 160 47 l55 7 -60 1 c-33 0 -73 -4 -90 -9z"/>
<path d="M385 818 l-50 -53 53 50 c28 27 52 51 52 52 0 8 -9 -1 -55 -49z"/>
<path d="M279 713 c-13 -16 -12 -17 4 -4 9 7 17 15 17 17 0 8 -8 3 -21 -13z"/>
<path d="M1970 726 c0 -2 8 -10 18 -17 15 -13 16 -12 3 4 -13 16 -21 21 -21
13z"/>
<path d="M1631 686 c10 -9 162 -46 187 -45 41 2 -104 48 -152 48 -22 1 -37 -1
-35 -3z"/>
<path d="M505 655 c-95 -31 -46 -32 75 0 90 23 92 24 45 23 -27 0 -81 -10
-120 -23z"/>
<path d="M1556 654 c-69 -22 -52 -26 40 -11 60 10 73 15 54 20 -32 9 -36 8
-94 -9z"/>
<path d="M637 653 c-4 -6 14 -13 41 -17 26 -3 61 -9 77 -12 l30 -5 -27 16
c-34 19 -113 31 -121 18z"/>
<path d="M1258 547 l-87 -31 -84 27 c-100 33 -112 33 -131 5 -19 -27 -5 -56
35 -70 l30 -10 -33 -17 c-38 -19 -49 -59 -23 -81 15 -12 30 -9 114 20 l96 33
80 -26 c96 -32 121 -33 135 -7 15 28 -2 55 -42 69 l-32 11 34 18 c41 20 52 58
24 79 -22 16 -12 18 -116 -20z m110 -14 c3 -17 -6 -24 -39 -35 -51 -17 -60
-35 -24 -44 21 -5 24 -10 19 -28 -4 -11 -8 -23 -10 -25 -2 -2 -35 7 -74 19
l-71 23 -68 -26 -69 -25 -6 21 c-4 15 1 27 17 39 19 15 20 19 7 28 -8 5 -22
10 -31 10 -24 0 -63 35 -55 48 11 17 31 15 122 -15 l83 -27 88 31 c48 18 93
30 98 29 6 -1 11 -12 13 -23z m-360 -126 c2 -10 -3 -17 -12 -17 -18 0 -29 16
-21 31 9 14 29 6 33 -14z m362 3 c0 -11 -7 -20 -15 -20 -8 0 -15 9 -15 20 0
11 7 20 15 20 8 0 15 -9 15 -20z"/>
<path d="M485 536 c-42 -19 -66 -49 -67 -84 -2 -55 47 -103 100 -101 11 0 9 4
-8 10 -41 17 -60 40 -60 74 0 60 74 115 117 87 18 -11 32 -57 26 -83 l-6 -24
20 25 c17 20 18 26 7 38 -8 7 -14 18 -14 22 0 11 -37 36 -65 43 -11 4 -33 0
-50 -7z"/>
<path d="M1633 504 c-8 -22 15 -94 38 -113 10 -9 25 -28 32 -44 l14 -27 24 21
c13 11 19 18 12 15 -14 -8 -67 59 -58 74 3 5 -1 10 -9 10 -21 0 -55 52 -38 58
15 5 16 22 2 22 -6 0 -13 -7 -17 -16z"/>
<path d="M1745 500 c-3 -5 0 -7 9 -4 27 10 39 -6 20 -28 -17 -18 -19 -18 -31
-2 -12 17 -13 17 -13 -2 0 -27 25 -60 51 -67 25 -7 69 32 68 60 0 15 -2 15 -9
-3 -11 -27 -36 -37 -62 -23 -20 11 -20 11 6 38 14 15 26 30 26 34 0 11 -58 8
-65 -3z"/>
<path d="M1555 430 c-7 -12 2 -30 16 -30 12 0 12 27 0 35 -5 3 -12 1 -16 -5z"/>
<path d="M595 380 c-3 -5 1 -10 9 -10 8 0 18 5 21 10 3 6 -1 10 -9 10 -8 0
-18 -4 -21 -10z"/>
<path d="M1420 370 c-21 -12 -28 -19 -18 -20 19 0 42 -38 68 -112 l16 -47 51
23 c49 23 72 49 53 61 -6 4 -10 -1 -10 -9 0 -22 -56 -50 -67 -33 -25 40 -63
133 -59 144 6 16 9 16 -34 -7z"/>
<path d="M643 368 c3 -10 0 -24 -9 -33 -9 -8 -12 -15 -8 -15 3 0 1 -7 -6 -15
-7 -8 -19 -15 -26 -15 -20 0 -17 27 4 40 14 9 12 10 -13 8 -41 -4 -49 -44 -11
-54 14 -3 30 -12 37 -20 13 -16 33 -19 24 -4 -3 6 3 23 14 39 25 35 26 54 4
72 -15 12 -16 12 -10 -3z"/>
<path d="M1591 366 c-7 -9 -9 -16 -4 -16 8 0 21 -20 50 -78 1 -2 10 1 22 7 20
11 20 11 -2 34 -12 12 -29 33 -37 46 -14 21 -17 22 -29 7z"/>
<path d="M705 317 c3 -7 -4 -30 -15 -51 -11 -22 -19 -41 -17 -42 1 -1 12 -5
24 -8 18 -6 22 -4 17 7 -3 9 2 29 10 46 21 41 20 61 -4 61 -11 0 -17 -5 -15
-13z"/>
<path d="M764 295 c13 -14 13 -20 0 -57 -11 -33 -12 -43 -2 -50 18 -11 30 -10
23 2 -9 15 23 80 40 80 24 0 28 -24 11 -65 -20 -46 -20 -42 4 -48 11 -3 18 -2
15 3 -2 4 3 26 12 48 19 49 7 72 -37 72 -16 0 -30 7 -34 15 -3 8 -15 15 -26
15 -19 0 -20 -2 -6 -15z"/>
<path d="M1085 300 c-4 -6 -3 -16 3 -22 6 -6 12 -6 17 2 4 6 3 16 -3 22 -6 6
-12 6 -17 -2z"/>
<path d="M1400 280 c0 -5 -9 -10 -20 -10 -17 0 -18 -3 -9 -19 13 -20 6 -51
-10 -51 -6 0 -15 9 -21 21 -9 15 -8 24 2 36 12 15 11 15 -10 4 -27 -14 -27
-48 1 -65 30 -19 72 12 74 57 1 20 0 37 -2 37 -3 0 -5 -4 -5 -10z"/>
<path d="M930 251 c-10 -4 -16 -24 -18 -61 -2 -30 -8 -62 -13 -71 -7 -13 -3
-18 17 -23 15 -4 29 -5 32 -1 3 3 0 5 -6 5 -7 0 -12 7 -12 15 0 10 10 15 30
15 38 0 70 31 70 69 0 36 -22 55 -54 47 -13 -3 -26 -2 -28 3 -2 4 -10 6 -18 2z
m74 -54 c13 -35 -10 -63 -43 -52 -21 6 -28 36 -15 70 10 25 47 14 58 -18z"/>
<path d="M1164 235 c-11 -8 -14 -15 -6 -15 8 0 12 -16 12 -45 0 -43 1 -45 28
-44 15 0 21 3 15 6 -8 3 -13 22 -13 46 0 57 -10 71 -36 52z"/>
<path d="M1215 240 c-3 -5 1 -10 9 -10 18 0 30 -39 24 -75 -5 -22 -2 -25 25
-25 24 0 28 3 19 12 -7 7 -12 27 -12 44 0 47 -46 85 -65 54z"/>
<path d="M1070 230 c-11 -7 -12 -10 -1 -10 9 0 12 -12 9 -45 -3 -39 -1 -45 21
-50 13 -3 26 -4 29 0 3 3 0 5 -6 5 -8 0 -12 20 -12 55 0 56 -8 66 -40 45z"/>
<path d="M1330 170 c0 -4 3 -10 7 -14 4 -4 8 -17 8 -29 0 -13 7 -23 20 -25 17
-4 18 -2 6 11 -17 21 -6 37 25 37 28 0 32 -15 7 -29 -10 -6 -13 -11 -7 -11 21
0 46 27 42 46 -3 16 -12 19 -56 19 -28 1 -52 -2 -52 -5z"/>
</g>
</svg>
