<svg width="29" height="28" viewBox="0 0 29 28" fill="none" xmlns="http://www.w3.org/2000/svg">
<g id="thumbs-up">
<path id="Vector" d="M8.66683 12.8335L13.3335 2.3335C14.2618 2.3335 15.152 2.70225 15.8084 3.35862C16.4647 4.015 16.8335 4.90524 16.8335 5.8335V10.5002H23.4368C23.7751 10.4963 24.1101 10.5661 24.4187 10.7046C24.7273 10.8431 25.002 11.047 25.224 11.3023C25.4459 11.5575 25.6098 11.858 25.7041 12.1828C25.7984 12.5076 25.8209 12.8491 25.7702 13.1835L24.1602 23.6835C24.0758 24.2399 23.7932 24.747 23.3644 25.1115C22.9356 25.476 22.3895 25.6732 21.8268 25.6668H8.66683M8.66683 12.8335V25.6668M8.66683 12.8335H5.16683C4.54799 12.8335 3.9545 13.0793 3.51691 13.5169C3.07933 13.9545 2.8335 14.548 2.8335 15.1668V23.3335C2.8335 23.9523 3.07933 24.5458 3.51691 24.9834C3.9545 25.421 4.54799 25.6668 5.16683 25.6668H8.66683" stroke="#566976" stroke-width="2" stroke-linecap="round" stroke-linejoin="round"/>
</g>
</svg>
