<svg width="29" height="28" viewBox="0 0 29 28" fill="none" xmlns="http://www.w3.org/2000/svg">
<g id="user-check" clip-path="url(#clip0_1772_4494)">
<path id="Vector" d="M19.1665 24.5V22.1667C19.1665 20.929 18.6748 19.742 17.7997 18.8668C16.9245 17.9917 15.7375 17.5 14.4998 17.5H6.33317C5.09549 17.5 3.90851 17.9917 3.03334 18.8668C2.15817 19.742 1.6665 20.929 1.6665 22.1667V24.5" stroke="#566976" stroke-width="2" stroke-linecap="round" stroke-linejoin="round"/>
<path id="Vector_2" d="M10.4167 12.8333C12.994 12.8333 15.0833 10.744 15.0833 8.16667C15.0833 5.58934 12.994 3.5 10.4167 3.5C7.83934 3.5 5.75 5.58934 5.75 8.16667C5.75 10.744 7.83934 12.8333 10.4167 12.8333Z" stroke="#566976" stroke-width="2" stroke-linecap="round" stroke-linejoin="round"/>
<path id="Vector_3" d="M20.3335 12.8333L22.6668 15.1667L27.3335 10.5" stroke="#566976" stroke-width="2" stroke-linecap="round" stroke-linejoin="round"/>
</g>
<defs>
<clipPath id="clip0_1772_4494">
<rect width="28" height="28" fill="white" transform="translate(0.5)"/>
</clipPath>
</defs>
</svg>
